<svg xmlns="http://www.w3.org/2000/svg" enable-background="new 0 0 64 64" viewBox="0 0 64 64"><rect width="6.8" height="11.5" x="11.73" y="7.21" fill="#f0bb73"/><rect width="8.68" height="2.66" x="10.79" y="4.55" fill="#dd9b54"/><rect width="56.84" height="3.78" x="3.58" y="60.22" fill="#d3d3d3"/><rect width="45.82" height="32.56" x="9.09" y="31.44" fill="#f9f9f9"/><rect width="45.82" height="1.54" x="9.09" y="29.9" fill="#d3d3d3"/><path fill="#da4765" d="M30.3,0.69L4.34,25.68c-1.59,1.53-0.51,4.22,1.7,4.22h51.92c2.21,0,3.3-2.69,1.7-4.22L33.7,0.69
						C32.75-0.23,31.25-0.23,30.3,0.69z"/><path fill="#d3d3d3" d="M31.54,64H14.18V51.26c0-4.79,3.89-8.68,8.68-8.68h0c4.79,0,8.68,3.89,8.68,8.68V64z"/><rect width="6.76" height="6.76" x="43.06" y="40.42" fill="#59cbef"/><rect width="6.76" height="6.76" x="43.06" y="48.27" fill="#59cbef"/><rect width="6.76" height="6.76" x="35.2" y="40.42" fill="#59cbef"/><rect width="6.76" height="6.76" x="35.2" y="48.27" fill="#59cbef"/><path fill="#b33254" d="M32,23.84L32,23.84c-2.83,0-5.13-2.3-5.13-5.13l0,0c0-2.83,2.3-5.13,5.13-5.13h0
							c2.83,0,5.13,2.3,5.13,5.13l0,0C37.13,21.54,34.83,23.84,32,23.84z"/></svg>